# xmcd
#
# Track frame offsets:
#	150
#	10077
#	31455
#	41135
#	56227
#	78885
#	90382
#	103117
#	116755
#	128920
#	141847
#	154157
#	164065
#	176845
#	191722
#
# Disc length: 2789 seconds
#
# Revision: 0
# Processed by: cddbd v1.5.2PL0 Copyright (c) Steve Scherf et al.
# Submitted via: audiograbber 1.83.01
#
DISCID=d10ae30f
DTITLE=El Gran Combo De Puerto Rico - Leyendas De La Música II - CD 5
DYEAR=1900
DGENRE=
TTITLE0=Milonga Sentimental
TTITLE1=Serrana
TTITLE2=Esos Ojitos Negros
TTITLE3=El Jala Jala
TTITLE4=Falsaria
TTITLE5=De Que Presumes
TTITLE6=En Beso La Vida
TTITLE7=Ojitos Chinos
TTITLE8=Acangana
TTITLE9=Milonga Del 900
TTITLE10=Que Me Importa
TTITLE11=Llévatela
TTITLE12=No Sufras Más Corazón
TTITLE13=A Mi Manera
TTITLE14=Dos Coplas Y Un Ole
EXTD=
EXTT0=
EXTT1=
EXTT2=
EXTT3=
EXTT4=
EXTT5=
EXTT6=
EXTT7=
EXTT8=
EXTT9=
EXTT10=
EXTT11=
EXTT12=
EXTT13=
EXTT14=
PLAYORDER=
